<svg width="18" height="18" viewBox="0 0 18 18" fill="none" xmlns="http://www.w3.org/2000/svg">
<g id="icons8-google-calendar 2" clip-path="url(#clip0_753_2995)">
<g id="Group 7711">
<path id="Vector" d="M8.68939 7.17965C8.68939 7.64794 8.59053 7.97136 8.39204 8.15048L6.61275 6.26573C6.79346 6.07006 7.10273 5.97209 7.54026 5.97209C8.30612 5.97209 8.68939 6.37471 8.68939 7.17965Z" stroke="#9E9E9E"/>
<path id="Rectangle 3245" d="M0.746094 2C0.746094 1.30964 1.30574 0.75 1.99609 0.75H15.9961C16.6865 0.75 17.2461 1.30964 17.2461 2V12.7914C17.2461 13.1246 17.1131 13.4439 16.8766 13.6786L13.6436 16.8872C13.4094 17.1196 13.0929 17.25 12.763 17.25H1.99609C1.30574 17.25 0.746094 16.6904 0.746094 16V2Z" stroke="#9E9E9E" stroke-width="1.5"/>
</g>
</g>
<defs>
<clipPath id="clip0_753_2995">
<rect width="17.8022" height="18" fill="white" transform="translate(0.0949707)"/>
</clipPath>
</defs>
</svg>
